<svg version="1.1" viewBox="0.0 0.0 2684.984251968504 238.64041994750656" fill="none" stroke="none" stroke-linecap="square" stroke-miterlimit="10" xmlns:xlink="http://www.w3.org/1999/xlink" xmlns="http://www.w3.org/2000/svg"><clipPath id="p.0"><path d="m0 0l2684.9841 0l0 238.64043l-2684.9841 0l0 -238.64043z" clip-rule="nonzero"/></clipPath><g clip-path="url(#p.0)"><path fill="#000000" fill-opacity="0.0" d="m0 0l2684.9841 0l0 238.64043l-2684.9841 0z" fill-rule="evenodd"/><path fill="#000000" fill-opacity="0.0" d="m63.62992 127.97638c13.763344 -0.64523315 58.494316 -3.8713913 82.580055 -3.8713913c24.08574 0 37.418198 4.5166245 61.934387 3.8713913c24.516174 -0.64523315 53.549423 -7.7427826 85.162735 -7.7427826c31.613281 0 78.280396 7.7427826 104.51706 7.7427826c26.236633 0 36.12903 -6.6675415 52.902863 -7.7427826c16.773865 -1.0752411 33.11682 1.5065613 47.740173 1.291336c14.623383 -0.21522522 24.300934 -3.2274704 39.99997 -2.582672c15.699036 0.64479065 41.936157 6.6662292 54.194275 6.451439c12.258057 -0.21478271 5.3757324 -7.5253677 19.35431 -7.740158c13.978577 -0.21478271 44.30182 6.8814545 64.51709 6.4514465c20.21521 -0.43000793 38.064697 -8.386269 56.77423 -9.031494c18.709534 -0.64523315 38.70868 4.5153046 55.48297 5.160103c16.774292 0.64479065 32.689392 -2.3665771 45.16272 -1.291336c12.473328 1.0752335 13.978577 7.0975494 29.677185 7.742775c15.698547 0.64523315 46.450134 -4.086609 64.514404 -3.8713837c18.064331 0.21521759 32.90332 5.1627274 43.8714 5.1627274c10.968079 0 2.3670044 -3.0122528 21.937012 -5.1627274c19.570007 -2.1504822 72.902466 -7.9553833 95.48291 -7.740158c22.580566 0.21521759 25.161499 9.676727 40.0 9.031494c14.838623 -0.64523315 27.526245 -11.182419 49.031494 -12.902885c21.505249 -1.7204742 63.44055 2.1500397 80.0 2.5800476c16.55957 0.43000793 16.13086 0 19.356934 0" fill-rule="evenodd"/><path stroke="#97b2a1" stroke-width="8.0" stroke-linejoin="round" stroke-linecap="butt" d="m63.62992 127.97638c13.763344 -0.64523315 58.494316 -3.8713913 82.580055 -3.8713913c24.08574 0 37.418198 4.5166245 61.934387 3.8713913c24.516174 -0.64523315 53.549423 -7.7427826 85.162735 -7.7427826c31.613281 0 78.280396 7.7427826 104.51706 7.7427826c26.236633 0 36.12903 -6.6675415 52.902863 -7.7427826c16.773865 -1.0752411 33.11682 1.5065613 47.740173 1.291336c14.623383 -0.21522522 24.300934 -3.2274704 39.99997 -2.582672c15.699036 0.64479065 41.936157 6.6662292 54.194275 6.451439c12.258057 -0.21478271 5.3757324 -7.5253677 19.35431 -7.740158c13.978577 -0.21478271 44.30182 6.8814545 64.51709 6.4514465c20.21521 -0.43000793 38.064697 -8.386269 56.77423 -9.031494c18.709534 -0.64523315 38.70868 4.5153046 55.48297 5.160103c16.774292 0.64479065 32.689392 -2.3665771 45.16272 -1.291336c12.473328 1.0752335 13.978577 7.0975494 29.677185 7.742775c15.698547 0.64523315 46.450134 -4.086609 64.514404 -3.8713837c18.064331 0.21521759 32.90332 5.1627274 43.8714 5.1627274c10.968079 0 2.3670044 -3.0122528 21.937012 -5.1627274c19.570007 -2.1504822 72.902466 -7.9553833 95.48291 -7.740158c22.580566 0.21521759 25.161499 9.676727 40.0 9.031494c14.838623 -0.64523315 27.526245 -11.182419 49.031494 -12.902885c21.505249 -1.7204742 63.44055 2.1500397 80.0 2.5800476c16.55957 0.43000793 16.13086 0 19.356934 0" fill-rule="evenodd"/><path fill="#000000" fill-opacity="0.0" d="m2640.6772 127.97638c-13.763428 -0.64523315 -58.494385 -3.8713913 -82.58008 -3.8713913c-24.085693 0 -37.418213 4.5166245 -61.934326 3.8713913c-24.516357 -0.64523315 -53.54956 -7.7427826 -85.16284 -7.7427826c-31.613281 0 -78.28052 7.7427826 -104.51709 7.7427826c-26.236572 0 -36.128906 -6.6675415 -52.902832 -7.7427826c-16.773926 -1.0752411 -33.116943 1.5065613 -47.740234 1.291336c-14.623291 -0.21522522 -24.301025 -3.2274704 -40.0 -2.582672c-15.698975 0.64479065 -41.936035 6.6662292 -54.19409 6.451439c-12.258057 -0.21478271 -5.3757324 -7.5253677 -19.354492 -7.740158c-13.978516 -0.21478271 -44.301758 6.8814545 -64.51697 6.4514465c-20.21521 -0.43000793 -38.064697 -8.386269 -56.774292 -9.031494c-18.709595 -0.64523315 -38.70862 4.5153046 -55.48291 5.160103c-16.774292 0.64479065 -32.689453 -2.3665771 -45.16272 -1.291336c-12.473389 1.0752335 -13.978638 7.0975494 -29.677246 7.742775c-15.698608 0.64523315 -46.450073 -4.086609 -64.514404 -3.8713837c-18.064331 0.21521759 -32.90332 5.1627274 -43.871338 5.1627274c-10.96814 0 -2.3670654 -3.0122528 -21.937012 -5.1627274c-19.570068 -2.1504822 -72.902466 -7.9553833 -95.48303 -7.740158c-22.580444 0.21521759 -25.161377 9.676727 -40.0 9.031494c-14.838501 -0.64523315 -27.526245 -11.182419 -49.031494 -12.902885c-21.505249 -1.7204742 -63.44043 2.1500397 -80.0 2.5800476c-16.559448 0.43000793 -16.130737 0 -19.356934 0" fill-rule="evenodd"/><path stroke="#97b2a1" stroke-width="8.0" stroke-linejoin="round" stroke-linecap="butt" d="m2640.6772 127.97638c-13.763428 -0.64523315 -58.494385 -3.8713913 -82.58008 -3.8713913c-24.085693 0 -37.418213 4.5166245 -61.934326 3.8713913c-24.516357 -0.64523315 -53.54956 -7.7427826 -85.16284 -7.7427826c-31.613281 0 -78.28052 7.7427826 -104.51709 7.7427826c-26.236572 0 -36.128906 -6.6675415 -52.902832 -7.7427826c-16.773926 -1.0752411 -33.116943 1.5065613 -47.740234 1.291336c-14.623291 -0.21522522 -24.301025 -3.2274704 -40.0 -2.582672c-15.698975 0.64479065 -41.936035 6.6662292 -54.19409 6.451439c-12.258057 -0.21478271 -5.3757324 -7.5253677 -19.354492 -7.740158c-13.978516 -0.21478271 -44.301758 6.8814545 -64.51697 6.4514465c-20.21521 -0.43000793 -38.064697 -8.386269 -56.774292 -9.031494c-18.709595 -0.64523315 -38.70862 4.5153046 -55.48291 5.160103c-16.774292 0.64479065 -32.689453 -2.3665771 -45.16272 -1.291336c-12.473389 1.0752335 -13.978638 7.0975494 -29.677246 7.742775c-15.698608 0.64523315 -46.450073 -4.086609 -64.514404 -3.8713837c-18.064331 0.21521759 -32.90332 5.1627274 -43.871338 5.1627274c-10.96814 0 -2.3670654 -3.0122528 -21.937012 -5.1627274c-19.570068 -2.1504822 -72.902466 -7.9553833 -95.48303 -7.740158c-22.580444 0.21521759 -25.161377 9.676727 -40.0 9.031494c-14.838501 -0.64523315 -27.526245 -11.182419 -49.031494 -12.902885c-21.505249 -1.7204742 -63.44043 2.1500397 -80.0 2.5800476c-16.559448 0.43000793 -16.130737 0 -19.356934 0" fill-rule="evenodd"/><path fill="#b099a1" d="m1325.5431 146.27676l0 0c2.0075684 -10.450119 7.4813232 -17.843063 12.226074 -16.512604q5.165283 1.4484406 11.066772 -0.9349365q-3.925415 10.88887 -6.110962 22.26558l0 0c-2.0076904 10.450134 -7.4814453 17.843079 -12.226074 16.512619l0 0c-4.744629 -1.3304749 -6.963501 -10.880524 -4.9558105 -21.330658z" fill-rule="evenodd"/><path stroke="#b099a1" stroke-width="1.0" stroke-linejoin="round" stroke-linecap="butt" d="m1325.5431 146.27676l0 0c2.0075684 -10.450119 7.4813232 -17.843063 12.226074 -16.512604q5.165283 1.4484406 11.066772 -0.9349365q-3.925415 10.88887 -6.110962 22.26558l0 0c-2.0076904 10.450134 -7.4814453 17.843079 -12.226074 16.512619l0 0c-4.744629 -1.3304749 -6.963501 -10.880524 -4.9558105 -21.330658z" fill-rule="evenodd"/><path fill="#b099a1" d="m1357.8945 87.35167l0 0c4.0664062 10.343033 4.1049805 20.60099 0.08642578 22.911797q-5.0560303 2.907318 -7.242676 13.112816q-2.2805176 -14.643486 -7.3964844 -27.656433l0 0c-4.0664062 -10.343033 -4.1051025 -20.60099 -0.08642578 -22.911804l0 0c4.0186768 -2.3108063 10.572754 4.2005997 14.63916 14.543625z" fill-rule="evenodd"/><path stroke="#b099a1" stroke-width="1.0" stroke-linejoin="round" stroke-linecap="butt" d="m1357.8945 87.35167l0 0c4.0664062 10.343033 4.1049805 20.60099 0.08642578 22.911797q-5.0560303 2.907318 -7.242676 13.112816q-2.2805176 -14.643486 -7.3964844 -27.656433l0 0c-4.0664062 -10.343033 -4.1051025 -20.60099 -0.08642578 -22.911804l0 0c4.0186768 -2.3108063 10.572754 4.2005997 14.63916 14.543625z" fill-rule="evenodd"/><path fill="#b099a1" d="m1325.4384 99.63417l0 0c8.971191 0.5766754 16.047607 5.5453796 15.805542 11.097908q-0.30444336 6.98584 5.7213135 14.378593q-11.116211 -4.6434784 -22.403198 -5.369011l0 0c-8.971191 -0.5766678 -16.047607 -5.545372 -15.805664 -11.0979l0 0c0.24206543 -5.5525284 7.7108154 -9.586258 16.682007 -9.00959z" fill-rule="evenodd"/><path stroke="#b099a1" stroke-width="1.0" stroke-linejoin="round" stroke-linecap="butt" d="m1325.4384 99.63417l0 0c8.971191 0.5766754 16.047607 5.5453796 15.805542 11.097908q-0.30444336 6.98584 5.7213135 14.378593q-11.116211 -4.6434784 -22.403198 -5.369011l0 0c-8.971191 -0.5766678 -16.047607 -5.545372 -15.805664 -11.0979l0 0c0.24206543 -5.5525284 7.7108154 -9.586258 16.682007 -9.00959z" fill-rule="evenodd"/><path fill="#b099a1" d="m1379.8727 145.97845l0 0c-1.8406982 -8.633606 -7.2508545 -14.42041 -12.084106 -12.925186q-6.647461 2.0564728 -15.025269 -4.0031433q7.0750732 10.4687195 9.606567 22.343033l0 0c1.8405762 8.633606 7.2507324 14.420395 12.084106 12.925171l0 0c4.833252 -1.495224 7.2592773 -9.706268 5.418701 -18.339874z" fill-rule="evenodd"/><path stroke="#b099a1" stroke-width="1.0" stroke-linejoin="round" stroke-linecap="butt" d="m1379.8727 145.97845l0 0c-1.8406982 -8.633606 -7.2508545 -14.42041 -12.084106 -12.925186q-6.647461 2.0564728 -15.025269 -4.0031433q7.0750732 10.4687195 9.606567 22.343033l0 0c1.8405762 8.633606 7.2507324 14.420395 12.084106 12.925171l0 0c4.833252 -1.495224 7.2592773 -9.706268 5.418701 -18.339874z" fill-rule="evenodd"/><path fill="#b099a1" d="m1385.3176 118.756195l0 0c-5.8933105 8.3823395 -13.422974 12.355972 -16.817749 8.875336q-4.27124 -4.3791046 -12.700928 -2.8435135q9.810059 -8.090157 17.224731 -18.6363l0 0c5.8933105 -8.3823395 13.422852 -12.355965 16.817749 -8.875336l0 0c3.3948975 3.480629 1.3695068 13.0974655 -4.5238037 21.479813z" fill-rule="evenodd"/><path stroke="#b099a1" stroke-width="1.0" stroke-linejoin="round" stroke-linecap="butt" d="m1385.3176 118.756195l0 0c-5.8933105 8.3823395 -13.422974 12.355972 -16.817749 8.875336q-4.27124 -4.3791046 -12.700928 -2.8435135q9.810059 -8.090157 17.224731 -18.6363l0 0c5.8933105 -8.3823395 13.422852 -12.355965 16.817749 -8.875336l0 0c3.3948975 3.480629 1.3695068 13.0974655 -4.5238037 21.479813z" fill-rule="evenodd"/></g></svg>