<svg version="1.1" viewBox="0.0 0.0 682.992125984252 674.6377952755905" fill="none" stroke="none" stroke-linecap="square" stroke-miterlimit="10" xmlns:xlink="http://www.w3.org/1999/xlink" xmlns="http://www.w3.org/2000/svg"><clipPath id="p.0"><path d="m0 0l682.9921 0l0 674.6378l-682.9921 0l0 -674.6378z" clip-rule="nonzero"/></clipPath><g clip-path="url(#p.0)"><path fill="#000000" fill-opacity="0.0" d="m0 0l682.9921 0l0 674.6378l-682.9921 0z" fill-rule="evenodd"/><path fill="#e3c5cf" d="m4.0157905 115.38936l0 0c0 -61.285988 49.68211 -110.9681 110.968094 -110.9681l453.0244 0l0 0c29.430603 0 57.65576 11.691249 78.46631 32.501804c20.810547 20.810555 32.50183 49.03572 32.50183 78.46629l0 443.85907c0 61.28601 -49.68213 110.96814 -110.96814 110.96814l-453.0244 0l0 0c-61.285988 0 -110.968094 -49.68213 -110.968094 -110.96814z" fill-rule="evenodd"/><g filter="url(#shadowFilter-p.1)"><use xlink:href="#p.1" transform="matrix(1.0 0.0 0.0 1.0 3.0 0.0)"/></g><defs><filter id="shadowFilter-p.1" filterUnits="userSpaceOnUse"><feGaussianBlur in="SourceAlpha" stdDeviation="0.0" result="blur"/><feComponentTransfer in="blur" color-interpolation-filters="sRGB"><feFuncR type="linear" slope="0" intercept="0.0"/><feFuncG type="linear" slope="0" intercept="0.0"/><feFuncB type="linear" slope="0" intercept="0.0"/><feFuncA type="linear" slope="1.0" intercept="0"/></feComponentTransfer></filter></defs><g id="p.1"><path fill="#000000" fill-opacity="0.0" d="m-14.8202095 4.4199476l712.6299 0l0 665.7953l-712.6299 0z" fill-rule="evenodd"/><path fill="#64454f" d="m76.168526 525.4199q-4.265625 0 -9.078125 -1.859375q-4.796871 -1.875 -7.999996 -5.34375q-3.1875 -3.46875 -3.1875 -7.7343445q0 -2.125 0.53125 -3.734375l111.46875 -362.125q2.125 -6.40625 7.984375 -9.328125q5.875 -2.9375 12.8125 -2.9375q7.46875 0 13.59375 3.203125q6.140625 3.203125 7.734375 9.0625l110.937485 362.125q0.53125 1.609375 0.53125 3.203125q0 4.2655945 -3.203125 7.7343445q-3.203125 3.46875 -8.0 5.609375q-4.796875 2.125 -10.125 2.125q-4.265625 0 -8.0 -2.125q-3.734375 -2.140625 -4.8125 -6.9375l-25.0625 -82.140594l-147.20312 0l-24.53125 82.140594q-1.59375 4.796875 -5.328125 6.9375q-3.734375 2.125 -9.0625 2.125zm47.46875 -121.59372l129.59375 0l-64.53125 -214.9375l-65.06251 214.9375zm266.64923 121.59372q-6.921875 0 -12.265625 -3.46875q-5.328125 -3.46875 -5.328125 -10.3905945l0 -363.20312q0 -6.40625 5.328125 -9.59375q5.34375 -3.203125 12.265625 -3.203125q6.40625 0 12.0 3.203125q5.609375 3.1875 5.609375 9.59375l0 159.46875l154.125 0l0 -159.46875q0 -6.40625 5.328125 -9.59375q5.34375 -3.203125 12.28125 -3.203125q6.390625 0 11.984375 3.203125q5.609375 3.1875 5.609375 9.59375l0 363.20312q0 6.9218445 -5.609375 10.3905945q-5.59375 3.46875 -11.984375 3.46875q-6.9375 0 -12.28125 -3.46875q-5.328125 -3.46875 -5.328125 -10.3905945l0 -173.34375l-154.125 0l0 173.34375q0 6.9218445 -5.609375 10.3905945q-5.59375 3.46875 -12.0 3.46875z" fill-rule="nonzero"/></g></g></svg>